<mxfile host="app.diagrams.net" modified="2021-05-21T07:25:19.268Z" agent="5.0 (Windows NT 10.0; WOW64) AppleWebKit/537.36 (KHTML, like Gecko) Chrome/84.0.4147.89 Safari/537.36 SLBrowser/7.0.0.4071 SLBChan/25" etag="W62RCgg1pC18TwQFxXAB" version="14.6.11" type="github">
  <diagram id="1LPQTxFM88LSQ4pCx5Mj" name="Page-1">
    <mxGraphModel dx="813" dy="437" grid="1" gridSize="10" guides="1" tooltips="1" connect="1" arrows="1" fold="1" page="1" pageScale="1" pageWidth="827" pageHeight="1169" math="0" shadow="0">
      <root>
        <mxCell id="0" />
        <mxCell id="1" parent="0" />
        <mxCell id="K6iTMaSlKtsJnkHkMhhb-5" style="edgeStyle=orthogonalEdgeStyle;rounded=0;orthogonalLoop=1;jettySize=auto;html=1;entryX=0.5;entryY=0;entryDx=0;entryDy=0;" edge="1" parent="1" target="K6iTMaSlKtsJnkHkMhhb-3">
          <mxGeometry relative="1" as="geometry">
            <mxPoint x="414" y="140" as="sourcePoint" />
          </mxGeometry>
        </mxCell>
        <mxCell id="K6iTMaSlKtsJnkHkMhhb-8" style="edgeStyle=orthogonalEdgeStyle;rounded=0;orthogonalLoop=1;jettySize=auto;html=1;entryX=0.5;entryY=0;entryDx=0;entryDy=0;fontFamily=Helvetica;fontSize=7;" edge="1" parent="1" source="K6iTMaSlKtsJnkHkMhhb-3" target="K6iTMaSlKtsJnkHkMhhb-7">
          <mxGeometry relative="1" as="geometry" />
        </mxCell>
        <mxCell id="K6iTMaSlKtsJnkHkMhhb-3" value="数据治理" style="rounded=0;whiteSpace=wrap;html=1;" vertex="1" parent="1">
          <mxGeometry x="354" y="167.5" width="120" height="35" as="geometry" />
        </mxCell>
        <mxCell id="K6iTMaSlKtsJnkHkMhhb-6" value="&lt;h5 style=&quot;font-size: 7px;&quot;&gt;&lt;font style=&quot;line-height: 110%; font-size: 7px;&quot;&gt;历史数据获取&lt;/font&gt;&lt;/h5&gt;" style="strokeWidth=1;html=1;shape=mxgraph.flowchart.direct_data;whiteSpace=wrap;fontSize=7;fontStyle=0;fontFamily=Helvetica;horizontal=1;verticalAlign=middle;" vertex="1" parent="1">
          <mxGeometry x="354" y="110" width="119" height="30" as="geometry" />
        </mxCell>
        <mxCell id="K6iTMaSlKtsJnkHkMhhb-10" value="" style="edgeStyle=orthogonalEdgeStyle;rounded=0;orthogonalLoop=1;jettySize=auto;html=1;fontFamily=Helvetica;fontSize=7;" edge="1" parent="1" source="K6iTMaSlKtsJnkHkMhhb-7" target="K6iTMaSlKtsJnkHkMhhb-9">
          <mxGeometry relative="1" as="geometry" />
        </mxCell>
        <mxCell id="K6iTMaSlKtsJnkHkMhhb-7" value="数据拆分" style="rounded=0;whiteSpace=wrap;html=1;" vertex="1" parent="1">
          <mxGeometry x="354" y="220" width="120" height="35" as="geometry" />
        </mxCell>
        <mxCell id="K6iTMaSlKtsJnkHkMhhb-14" value="" style="edgeStyle=orthogonalEdgeStyle;rounded=0;orthogonalLoop=1;jettySize=auto;html=1;fontFamily=Helvetica;fontSize=7;" edge="1" parent="1" source="K6iTMaSlKtsJnkHkMhhb-9" target="K6iTMaSlKtsJnkHkMhhb-13">
          <mxGeometry relative="1" as="geometry" />
        </mxCell>
        <mxCell id="K6iTMaSlKtsJnkHkMhhb-9" value="特征提取" style="whiteSpace=wrap;html=1;rounded=0;" vertex="1" parent="1">
          <mxGeometry x="354" y="280" width="120" height="30" as="geometry" />
        </mxCell>
        <mxCell id="K6iTMaSlKtsJnkHkMhhb-12" style="edgeStyle=orthogonalEdgeStyle;rounded=0;orthogonalLoop=1;jettySize=auto;html=1;entryX=0;entryY=0.5;entryDx=0;entryDy=0;fontFamily=Helvetica;fontSize=7;" edge="1" parent="1" source="K6iTMaSlKtsJnkHkMhhb-11" target="K6iTMaSlKtsJnkHkMhhb-9">
          <mxGeometry relative="1" as="geometry" />
        </mxCell>
        <mxCell id="K6iTMaSlKtsJnkHkMhhb-11" value="&lt;h5 style=&quot;font-size: 7px&quot;&gt;实时数据&lt;/h5&gt;" style="strokeWidth=1;html=1;shape=mxgraph.flowchart.direct_data;whiteSpace=wrap;fontSize=7;fontStyle=0;fontFamily=Helvetica;horizontal=1;verticalAlign=middle;" vertex="1" parent="1">
          <mxGeometry x="210" y="280" width="119" height="30" as="geometry" />
        </mxCell>
        <mxCell id="K6iTMaSlKtsJnkHkMhhb-16" value="" style="edgeStyle=orthogonalEdgeStyle;rounded=0;orthogonalLoop=1;jettySize=auto;html=1;fontFamily=Helvetica;fontSize=7;" edge="1" parent="1" source="K6iTMaSlKtsJnkHkMhhb-13" target="K6iTMaSlKtsJnkHkMhhb-15">
          <mxGeometry relative="1" as="geometry" />
        </mxCell>
        <mxCell id="K6iTMaSlKtsJnkHkMhhb-13" value="相似比较" style="whiteSpace=wrap;html=1;rounded=0;" vertex="1" parent="1">
          <mxGeometry x="354" y="330" width="120" height="30" as="geometry" />
        </mxCell>
        <mxCell id="K6iTMaSlKtsJnkHkMhhb-15" value="趋势预测" style="rounded=0;whiteSpace=wrap;html=1;" vertex="1" parent="1">
          <mxGeometry x="354" y="380" width="120" height="30" as="geometry" />
        </mxCell>
      </root>
    </mxGraphModel>
  </diagram>
</mxfile>
